<svg aria-hidden="true" style="position: absolute; width: 0; height: 0; overflow: hidden;" version="1.1" xmlns="http://www.w3.org/2000/svg" xmlns:xlink="http://www.w3.org/1999/xlink">
<defs>
<symbol id="icon-Vector" viewBox="0 0 32 32">
<path d="M31.297 15.301c-0.002-8.452-6.855-15.303-15.308-15.301s-15.303 6.855-15.301 15.308c0.001 6.658 4.307 12.551 10.649 14.576 0.061 0.019 0.124 0.029 0.187 0.029 0.121-0 0.239-0.032 0.342-0.094 0.135-0.080 0.236-0.207 0.283-0.356l3.865-12.25c1.057-0.005 1.909-0.866 1.903-1.923s-0.866-1.909-1.923-1.903c-0.284 0.001-0.565 0.067-0.82 0.191l-5.106-5.107c-0.253-0.245-0.657-0.238-0.902 0.016-0.239 0.247-0.239 0.639 0 0.886l5.103 5.109c-0.392 0.799-0.168 1.764 0.536 2.309l-3.683 11.673c-7.278-2.681-11.004-10.754-8.323-18.032s10.754-11.004 18.032-8.323c7.278 2.681 11.004 10.754 8.323 18.032-1.31 3.556-4.001 6.431-7.462 7.973l-0.398-1.874c-0.073-0.345-0.411-0.565-0.756-0.492-0.109 0.023-0.209 0.074-0.293 0.148l-3.837 3.426c-0.263 0.234-0.287 0.637-0.052 0.9 0.076 0.085 0.174 0.149 0.283 0.184l4.899 1.564c0.335 0.108 0.694-0.077 0.802-0.412 0.034-0.106 0.040-0.219 0.017-0.328l-0.391-1.839c5.664-2.388 9.342-7.942 9.329-14.089zM15.992 14.664c0.352 0 0.638 0.286 0.638 0.638s-0.286 0.638-0.638 0.638c-0.352 0-0.638-0.285-0.638-0.638s0.285-0.638 0.638-0.638zM18.093 29.528l2.184-1.948 0.603 2.84-2.787-0.892z"></path>
</symbol>
<symbol id="icon-Group" viewBox="0 0 32 32">
<path fill="#2e2f42" style="fill: var(--color1, #2e2f42)" d="M30.773 22.098l-8.443-8.505 0.937-4.615c0.242 0.094 0.499 0.144 0.758 0.146h0.006c1.192 0.014 2.17-0.941 2.184-2.133s-0.941-2.17-2.133-2.184c-1.192-0.014-2.17 0.941-2.184 2.133-0.003 0.255 0.039 0.509 0.125 0.749l-4.96 0.605-8.091-8.133c-0.099-0.101-0.235-0.159-0.377-0.16-0.14 0.001-0.274 0.056-0.373 0.155l-1.513 1.504c-0.208 0.208-0.208 0.546 0 0.754l0.814 0.826c-3.153 5.798-2.129 12.978 2.519 17.663 0.043 0.041 0.092 0.074 0.146 0.098-0.034 0.18-0.051 0.364-0.052 0.547v6.187h-6.4c-1.472 0.002-2.665 1.195-2.667 2.667v1.067c0 0.295 0.239 0.533 0.533 0.533h24.533c0.295 0 0.533-0.239 0.533-0.533v-1.067c-0.002-1.472-1.195-2.665-2.667-2.667h-6.4v-2.742c1.003 0.21 2.024 0.317 3.049 0.32 2.458-0.003 4.877-0.615 7.040-1.783l0.818 0.823c0.099 0.101 0.235 0.159 0.377 0.16 0.14-0.001 0.274-0.056 0.373-0.155l1.513-1.504c0.208-0.208 0.208-0.546 0-0.754zM23.28 6.233c0.418-0.415 1.093-0.414 1.509 0.004s0.414 1.093-0.004 1.508c-0.2 0.199-0.47 0.31-0.752 0.31h-0.003c-0.589-0.003-1.064-0.483-1.061-1.072 0.002-0.282 0.115-0.552 0.314-0.751h-0.002zM22.024 9.738l-0.598 2.946-1.175-1.182 1.774-1.763zM21.419 8.836l-1.92 1.909-1.485-1.493 3.405-0.415zM24.004 28.8c0.884 0 1.6 0.716 1.6 1.6v0.533h-23.467v-0.533c0-0.884 0.716-1.6 1.6-1.6h20.267zM16.537 26.667v1.067h-5.333v-1.067h5.333zM11.204 25.6v-4.053c0-1.294 1.196-2.347 2.667-2.347s2.667 1.053 2.667 2.347v4.053h-5.333zM17.604 23.904v-2.357c0-1.882-1.675-3.413-3.733-3.413-1.331-0.020-2.576 0.657-3.281 1.786-4.058-4.274-4.971-10.645-2.279-15.887l18.602 18.708c-2.872 1.461-6.165 1.873-9.309 1.163zM28.893 23.22l-21.057-21.181 0.755-0.752 7.935 7.98c0.004 0 0.006 0.007 0.010 0.010l13.115 13.191-0.757 0.752z"></path>
<path fill="#4d5ae5" style="fill: var(--color2, #4d5ae5)" d="M13.876 20.267h-0.005c-0.884-0.001-1.601 0.714-1.602 1.598s0.714 1.601 1.598 1.602h0.005c0.884 0.001 1.601-0.714 1.602-1.598s-0.714-1.601-1.598-1.602zM14.249 22.245c-0.1 0.1-0.236 0.156-0.378 0.155-0.295-0.002-0.532-0.242-0.531-0.536 0.001-0.141 0.057-0.276 0.157-0.375s0.233-0.154 0.373-0.155c0.295 0.002 0.532 0.242 0.531 0.536-0.001 0.141-0.057 0.276-0.157 0.375h0.005z"></path>
</symbol>
<symbol id="icon-Ellipse-3" viewBox="0 0 32 32">
<path fill="#4d5ae5" style="fill: var(--color2, #4d5ae5)" d="M29.333 13.333c0 3.682-1.492 7.015-3.905 9.428s-5.746 3.905-9.428 3.905c-3.682 0-7.015-1.492-9.428-3.905s-3.905-5.746-3.905-9.428c0-3.682 1.492-7.015 3.905-9.428s5.746-3.905 9.428-3.905 7.015 1.492 9.428 3.905c2.413 2.413 3.905 5.746 3.905 9.428z"></path>
<path fill="#f4f4fd" style="fill: var(--color3, #f4f4fd)" d="M21.331 18.667v-0h0.003v-3.912c0-1.914-0.412-3.388-2.649-3.388-1.076 0-1.797 0.59-2.092 1.15h-0.031v-0.971h-2.121v7.121h2.209v-3.526c0-0.928 0.176-1.826 1.326-1.826 1.133 0 1.15 1.060 1.15 1.886v3.467h2.207z"></path>
<path fill="#f4f4fd" style="fill: var(--color3, #f4f4fd)" d="M10.843 11.545h2.212v7.121h-2.212v-7.121z"></path>
<path fill="#f4f4fd" style="fill: var(--color3, #f4f4fd)" d="M11.948 8c-0.707 0-1.281 0.574-1.281 1.281s0.574 1.293 1.281 1.293 1.281-0.586 1.281-1.293c-0-0.707-0.574-1.281-1.281-1.281v0z"></path>
</symbol>
<symbol id="icon-Ellipse-2" viewBox="0 0 32 32">
<path fill="#4d5ae5" style="fill: var(--color2, #4d5ae5)" d="M29.333 13.333c0 3.682-1.492 7.015-3.905 9.428s-5.746 3.905-9.428 3.905c-3.682 0-7.015-1.492-9.428-3.905s-3.905-5.746-3.905-9.428c0-3.682 1.492-7.015 3.905-9.428s5.746-3.905 9.428-3.905 7.015 1.492 9.428 3.905c2.413 2.413 3.905 5.746 3.905 9.428z"></path>
<path fill="#f4f4fd" style="fill: var(--color3, #f4f4fd)" d="M17.776 9.771h0.974v-1.696c-0.168-0.023-0.746-0.075-1.419-0.075-1.404 0-2.366 0.883-2.366 2.506v1.494h-1.549v1.896h1.549v4.771h1.9v-4.77h1.487l0.236-1.896h-1.723v-1.306c0-0.548 0.148-0.923 0.912-0.923z"></path>
</symbol>
<symbol id="icon-Ellipse-1" viewBox="0 0 32 32">
<path fill="#4d5ae5" style="fill: var(--color2, #4d5ae5)" d="M29.333 13.333c0 3.682-1.492 7.015-3.905 9.428s-5.746 3.905-9.428 3.905c-3.682 0-7.015-1.492-9.428-3.905s-3.905-5.746-3.905-9.428c0-3.682 1.492-7.015 3.905-9.428s5.746-3.905 9.428-3.905 7.015 1.492 9.428 3.905c2.413 2.413 3.905 5.746 3.905 9.428z"></path>
<path fill="#f4f4fd" style="fill: var(--color3, #f4f4fd)" d="M21.333 10.026c-0.397 0.174-0.819 0.289-1.26 0.345 0.453-0.271 0.799-0.696 0.962-1.209-0.423 0.252-0.889 0.43-1.387 0.529-0.401-0.427-0.973-0.692-1.597-0.692-1.211 0-2.185 0.983-2.185 2.187 0 0.173 0.015 0.34 0.051 0.499-1.818-0.089-3.427-0.96-4.507-2.287-0.189 0.327-0.299 0.702-0.299 1.105 0 0.757 0.39 1.429 0.971 1.817-0.351-0.007-0.696-0.109-0.988-0.269 0 0.007 0 0.015 0 0.024 0 1.063 0.758 1.945 1.752 2.149-0.178 0.049-0.372 0.072-0.573 0.072-0.14 0-0.281-0.008-0.414-0.037 0.283 0.866 1.087 1.503 2.043 1.523-0.744 0.582-1.689 0.933-2.711 0.933-0.179 0-0.351-0.008-0.523-0.030 0.969 0.625 2.117 0.981 3.355 0.981 4.024 0 6.224-3.333 6.224-6.223 0-0.097-0.003-0.19-0.008-0.283 0.434-0.308 0.799-0.693 1.096-1.135z"></path>
</symbol>
<symbol id="icon-Ellipse" viewBox="0 0 32 32">
<path fill="#4d5ae5" style="fill: var(--color2, #4d5ae5)" d="M29.333 13.333c0 3.682-1.492 7.015-3.905 9.428s-5.746 3.905-9.428 3.905c-3.682 0-7.015-1.492-9.428-3.905s-3.905-5.746-3.905-9.428c0-3.682 1.492-7.015 3.905-9.428s5.746-3.905 9.428-3.905 7.015 1.492 9.428 3.905c2.413 2.413 3.905 5.746 3.905 9.428z"></path>
<path fill="#f4f4fd" style="fill: var(--color3, #f4f4fd)" d="M21.323 11.136c-0.025-0.567-0.117-0.956-0.248-1.294-0.135-0.358-0.344-0.679-0.617-0.946-0.267-0.271-0.59-0.481-0.944-0.615-0.34-0.131-0.727-0.223-1.294-0.248-0.571-0.027-0.752-0.033-2.2-0.033s-1.629 0.006-2.198 0.031c-0.567 0.025-0.956 0.117-1.294 0.248-0.358 0.135-0.679 0.344-0.946 0.617-0.271 0.267-0.481 0.59-0.615 0.944-0.131 0.34-0.223 0.727-0.248 1.294-0.027 0.571-0.033 0.752-0.033 2.2s0.006 1.629 0.031 2.198c0.025 0.567 0.117 0.956 0.248 1.294 0.135 0.358 0.346 0.679 0.617 0.946 0.267 0.271 0.59 0.481 0.944 0.615 0.34 0.131 0.727 0.223 1.294 0.248 0.569 0.025 0.75 0.031 2.198 0.031s1.629-0.006 2.198-0.031c0.567-0.025 0.956-0.117 1.294-0.248 0.717-0.277 1.284-0.844 1.561-1.561 0.131-0.34 0.223-0.727 0.248-1.294 0.025-0.569 0.031-0.75 0.031-2.198s-0.002-1.629-0.027-2.198zM20.362 15.491c-0.023 0.521-0.11 0.802-0.183 0.99-0.179 0.465-0.548 0.833-1.013 1.013-0.188 0.073-0.471 0.16-0.99 0.183-0.563 0.025-0.731 0.031-2.155 0.031s-1.594-0.006-2.155-0.031c-0.521-0.023-0.802-0.11-0.99-0.183-0.231-0.085-0.442-0.221-0.613-0.398-0.177-0.173-0.313-0.381-0.398-0.613-0.073-0.188-0.16-0.471-0.183-0.99-0.025-0.563-0.031-0.731-0.031-2.155s0.006-1.594 0.031-2.155c0.023-0.521 0.11-0.802 0.183-0.99 0.085-0.231 0.221-0.442 0.4-0.613 0.173-0.177 0.381-0.313 0.613-0.398 0.188-0.073 0.471-0.16 0.99-0.183 0.563-0.025 0.731-0.031 2.155-0.031 1.425 0 1.594 0.006 2.155 0.031 0.521 0.023 0.802 0.11 0.99 0.183 0.231 0.085 0.442 0.221 0.613 0.398 0.177 0.173 0.313 0.381 0.398 0.613 0.073 0.188 0.16 0.471 0.183 0.99 0.025 0.563 0.031 0.731 0.031 2.155s-0.006 1.59-0.031 2.153z"></path>
<path fill="#f4f4fd" style="fill: var(--color3, #f4f4fd)" d="M16.020 10.594c-1.513 0-2.74 1.227-2.74 2.74s1.227 2.74 2.74 2.74c1.513 0 2.74-1.227 2.74-2.74s-1.227-2.74-2.74-2.74zM16.020 15.112c-0.981 0-1.777-0.796-1.777-1.777s0.796-1.777 1.777-1.777c0.981 0 1.777 0.796 1.777 1.777s-0.796 1.777-1.777 1.777z"></path>
<path fill="#f4f4fd" style="fill: var(--color3, #f4f4fd)" d="M19.508 10.486c0 0.353-0.286 0.64-0.64 0.64s-0.64-0.286-0.64-0.64c0-0.353 0.286-0.64 0.64-0.64s0.64 0.286 0.64 0.64z"></path>
</symbol>
<symbol id="icon-diagram-1" viewBox="0 0 35 32">
<path fill="#4d5ae5" style="fill: var(--color2, #4d5ae5)" d="M16.665 14.734h1.050v4.724h-1.050v-4.724z"></path>
<path fill="#4d5ae5" style="fill: var(--color2, #4d5ae5)" d="M20.864 16.834h1.050v2.624h-1.050v-2.624z"></path>
<path fill="#4d5ae5" style="fill: var(--color2, #4d5ae5)" d="M12.466 18.408h1.050v1.050h-1.050v-1.050z"></path>
<path fill="#4d5ae5" style="fill: var(--color2, #4d5ae5)" d="M9.317 17.883h1.050v1.575h-1.050v-1.575z"></path>
<path fill="#2e2f42" style="fill: var(--color1, #2e2f42)" d="M3.544 27.856h25.193c0.87 0 1.575-0.705 1.575-1.575v-2.099c0-0.87-0.705-1.575-1.575-1.575h-0.525v-13.089l2.981-2.824c0.692 0.341 1.529 0.134 1.982-0.491s0.39-1.485-0.15-2.037-1.398-0.634-2.033-0.195c-0.635 0.439-0.86 1.272-0.534 1.971l-2.246 2.129v-1.211c0-0.87-0.705-1.575-1.575-1.575h-20.994c-0.87 0-1.575 0.705-1.575 1.575v15.746h-0.525c-0.87 0-1.575 0.705-1.575 1.575v2.099c0 0.87 0.705 1.575 1.575 1.575zM31.886 4.762c0.29 0 0.525 0.235 0.525 0.525s-0.235 0.525-0.525 0.525c-0.29 0-0.525-0.235-0.525-0.525s0.235-0.525 0.525-0.525zM5.118 6.862c0-0.29 0.235-0.525 0.525-0.525h20.994c0.29 0 0.525 0.235 0.525 0.525v2.204l-1.050 0.997v-2.152c0-0.29-0.235-0.525-0.525-0.525h-18.895c-0.29 0-0.525 0.235-0.525 0.525v13.121c0 0.29 0.235 0.525 0.525 0.525h18.895c0.29 0 0.525-0.235 0.525-0.525v-9.525l1.050-0.995v12.095h-22.044v-15.746zM9.842 13.685c-0.71-0.002-1.334 0.471-1.522 1.156s0.104 1.411 0.714 1.773c0.61 0.362 1.388 0.271 1.899-0.222l1.824 0.915c0.212 0.106 0.469 0.056 0.627-0.121l3.878-4.363 3.812 2.857c0.204 0.153 0.49 0.137 0.676-0.039l3.313-3.139v8.006h-17.845v-12.072h17.845v2.619l-3.713 3.517-3.844-2.882c-0.218-0.164-0.526-0.133-0.707 0.071l-3.932 4.424-1.47-0.735c0.011-0.063 0.017-0.127 0.020-0.19 0-0.87-0.705-1.575-1.575-1.575zM10.367 15.259c0 0.29-0.235 0.525-0.525 0.525s-0.525-0.235-0.525-0.525c0-0.29 0.235-0.525 0.525-0.525s0.525 0.235 0.525 0.525zM13.516 23.657h5.249v0.525c0 0.29-0.235 0.525-0.525 0.525h-4.199c-0.29 0-0.525-0.235-0.525-0.525v-0.525zM3.019 24.182c0-0.29 0.235-0.525 0.525-0.525h8.923v0.525c0 0.87 0.705 1.575 1.575 1.575h4.199c0.869 0 1.575-0.705 1.575-1.575v-0.525h8.922c0.29 0 0.525 0.235 0.525 0.525v2.099c0 0.29-0.235 0.525-0.525 0.525h-25.193c-0.29 0-0.525-0.235-0.525-0.525v-2.099z"></path>
</symbol>
<symbol id="icon-astronaut-1" viewBox="0 0 33 32">
<path fill="#4d5ae5" style="fill: var(--color2, #4d5ae5)" d="M31.512 4.196c-0.058-0.179-0.213-0.309-0.399-0.336l-1.772-0.258-0.793-1.606c-0.166-0.338-0.721-0.338-0.887 0l-0.793 1.606-1.772 0.258c-0.186 0.027-0.341 0.157-0.4 0.336-0.058 0.179-0.010 0.376 0.125 0.507l1.283 1.25-0.303 1.765c-0.032 0.186 0.045 0.373 0.196 0.484 0.154 0.112 0.355 0.126 0.521 0.038l1.585-0.834 1.585 0.834c0.072 0.038 0.152 0.057 0.231 0.057 0.102 0 0.205-0.032 0.291-0.094 0.152-0.111 0.229-0.298 0.196-0.484l-0.303-1.765 1.283-1.25c0.134-0.132 0.183-0.328 0.125-0.507zM29.228 5.427c-0.116 0.113-0.17 0.278-0.142 0.438l0.177 1.033-0.928-0.488c-0.072-0.038-0.151-0.057-0.231-0.057s-0.158 0.019-0.231 0.057l-0.928 0.488 0.177-1.033c0.028-0.16-0.026-0.324-0.142-0.438l-0.751-0.732 1.038-0.151c0.161-0.023 0.3-0.125 0.372-0.271l0.464-0.94 0.464 0.94c0.072 0.146 0.211 0.247 0.372 0.271l1.038 0.151-0.75 0.732z"></path>
<path fill="#4d5ae5" style="fill: var(--color2, #4d5ae5)" d="M26.095 19.035h-0.989v0.989h0.989v-0.989z"></path>
<path fill="#4d5ae5" style="fill: var(--color2, #4d5ae5)" d="M26.095 21.014h-0.989v0.989h0.989v-0.989z"></path>
<path fill="#4d5ae5" style="fill: var(--color2, #4d5ae5)" d="M27.084 20.024h-0.989v0.989h0.989v-0.989z"></path>
<path fill="#4d5ae5" style="fill: var(--color2, #4d5ae5)" d="M25.105 20.024h-0.989v0.989h0.989v-0.989z"></path>
<path fill="#4d5ae5" style="fill: var(--color2, #4d5ae5)" d="M22.632 24.477h-0.989v0.989h0.989v-0.989z"></path>
<path fill="#4d5ae5" style="fill: var(--color2, #4d5ae5)" d="M22.632 26.455h-0.989v0.989h0.989v-0.989z"></path>
<path fill="#4d5ae5" style="fill: var(--color2, #4d5ae5)" d="M23.621 25.466h-0.989v0.989h0.989v-0.989z"></path>
<path fill="#4d5ae5" style="fill: var(--color2, #4d5ae5)" d="M21.643 25.466h-0.989v0.989h0.989v-0.989z"></path>
<path fill="#4d5ae5" style="fill: var(--color2, #4d5ae5)" d="M16.696 22.498h-0.989v0.989h0.989v-0.989z"></path>
<path fill="#4d5ae5" style="fill: var(--color2, #4d5ae5)" d="M16.696 24.477h-0.989v0.989h0.989v-0.989z"></path>
<path fill="#4d5ae5" style="fill: var(--color2, #4d5ae5)" d="M17.685 23.487h-0.989v0.989h0.989v-0.989z"></path>
<path fill="#4d5ae5" style="fill: var(--color2, #4d5ae5)" d="M15.706 23.487h-0.989v0.989h0.989v-0.989z"></path>
<path fill="#4d5ae5" style="fill: var(--color2, #4d5ae5)" d="M7.296 5.678h-0.989v0.989h0.989v-0.989z"></path>
<path fill="#4d5ae5" style="fill: var(--color2, #4d5ae5)" d="M7.296 7.657h-0.989v0.989h0.989v-0.989z"></path>
<path fill="#4d5ae5" style="fill: var(--color2, #4d5ae5)" d="M8.286 6.668h-0.989v0.989h0.989v-0.989z"></path>
<path fill="#4d5ae5" style="fill: var(--color2, #4d5ae5)" d="M6.307 6.668h-0.989v0.989h0.989v-0.989z"></path>
<path fill="#2e2f42" style="fill: var(--color1, #2e2f42)" d="M24.779 13.133c-0.267-0.36-0.658-0.591-1.102-0.653-0.446-0.063-0.887 0.054-1.243 0.326l-1.162 0.89-1.76 1.314-1.259-0.502c2.246-1.008 3.816-3.254 3.816-5.862 0-3.546-2.896-6.431-6.457-6.431s-6.457 2.885-6.457 6.431c0 1.285 0.384 2.48 1.039 3.486l-2.564-0.022c-0.001 0-0.003 0-0.004 0-0.008 0-0.014 0.004-0.022 0.005-0.049 0.002-0.097 0.012-0.144 0.029-0.012 0.005-0.024 0.007-0.036 0.012-0.006 0.002-0.012 0.003-0.018 0.006l-2.999 1.481c-0.001 0-0.001 0-0.001 0l-1.756 0.845c-0.019 0.008-0.039 0.020-0.058 0.033-0.7 0.466-0.938 1.381-0.555 2.129 0.204 0.398 0.552 0.691 0.979 0.825 0.165 0.051 0.333 0.077 0.5 0.077 0.269 0 0.535-0.066 0.779-0.196l1.287-0.685 2.1-1.084 1.258-0.007-5.047 5.023c-0 0-0.001 0-0.002 0.001l-1.242 1.237c-0.293 0.292-0.455 0.679-0.455 1.092s0.161 0.801 0.455 1.093c0.301 0.3 0.698 0.45 1.094 0.45s0.792-0.15 1.095-0.45l1.219-1.214 1.615-1.206 0.836 0.832-1.634 1.627c-0 0.001-0.001 0.001-0.001 0.001l-1.242 1.237c-0.293 0.292-0.455 0.679-0.455 1.092s0.161 0.801 0.455 1.093c0.301 0.3 0.698 0.45 1.094 0.45s0.793-0.15 1.095-0.45l3.229-3.215c0.001-0.001 0.001-0.001 0.001-0.002l0.937-0.928-0.003-0.003c0.006-0.006 0.014-0.008 0.020-0.014l4.792-5.248 3.219 0.458c0.023 0.003 0.047 0.005 0.070 0.005 0.060 0 0.118-0.014 0.174-0.036 0.016-0.006 0.031-0.014 0.046-0.022 0.018-0.009 0.037-0.014 0.053-0.025l2.98-1.979c0.011-0.007 0.017-0.019 0.027-0.027 0.012-0.009 0.027-0.013 0.038-0.024l1.179-1.105c0.614-0.575 0.698-1.517 0.197-2.191zM3.831 16.482c-0.161 0.086-0.343 0.103-0.518 0.048-0.173-0.054-0.314-0.172-0.396-0.332-0.149-0.291-0.063-0.645 0.199-0.837l1.218-0.586 0.417 1.217-0.92 0.489zM7.075 14.787l-1.436 0.742-0.407-1.19 1.88-0.928-0.037 1.376zM21.080 8.646c0 0.852-0.203 1.655-0.556 2.374l-3.878-1.762c-0.041-0.532-0.317-0.997-0.731-1.287l1.358-4.508c2.205 0.702 3.807 2.759 3.807 5.183zM10.145 8.646c0-3 2.453-5.442 5.467-5.442 0.234 0 0.464 0.020 0.691 0.048l-1.328 4.409c-0.018-0-0.035-0.005-0.053-0.005-0.958 0-1.737 0.777-1.737 1.731s0.779 1.731 1.737 1.731c0.644 0 1.201-0.356 1.501-0.876l3.583 1.628c-0.997 1.342-2.592 2.217-4.393 2.217-3.015 0-5.467-2.441-5.467-5.442zM15.67 9.389c0 0.409-0.335 0.742-0.748 0.742s-0.747-0.333-0.747-0.742c0-0.409 0.335-0.742 0.747-0.742s0.748 0.333 0.748 0.742zM4.141 23.324c-0.219 0.217-0.574 0.217-0.792 0-0.105-0.105-0.163-0.244-0.163-0.392s0.058-0.286 0.163-0.391l0.892-0.889 0.79 0.786-0.889 0.885zM7.122 26.787c-0.219 0.217-0.574 0.218-0.793 0-0.105-0.105-0.163-0.244-0.163-0.392s0.058-0.286 0.163-0.391l0.893-0.889 0.79 0.786-0.89 0.886zM10.352 23.569c-0.001 0-0.001 0-0.002 0.001l-1.637 1.632-0.79-0.786 1.635-1.628c0 0 0 0 0-0s0.001-0 0.001-0.001c0.037-0.037 0.060-0.082 0.083-0.126 0.006-0.013 0.019-0.024 0.024-0.037 0.015-0.038 0.018-0.079 0.024-0.119 0.003-0.023 0.013-0.044 0.013-0.067 0-0.033-0.012-0.065-0.019-0.098-0.006-0.030-0.006-0.060-0.017-0.089-0.019-0.047-0.051-0.088-0.085-0.128-0.009-0.011-0.013-0.025-0.023-0.035 0 0 0 0-0.001 0s-0.001-0.002-0.001-0.002l-1.49-1.484c-0.016-0.016-0.036-0.022-0.054-0.036-0.026-0.020-0.051-0.039-0.081-0.053-0.028-0.014-0.057-0.022-0.087-0.030-0.032-0.009-0.062-0.016-0.096-0.018-0.030-0.002-0.058 0.001-0.089 0.004-0.033 0.004-0.064 0.008-0.096 0.019-0.031 0.010-0.059 0.025-0.088 0.042-0.018 0.010-0.039 0.014-0.056 0.027l-1.645 1.228-0.836-0.832 2.225-2.213 4.045 3.978-0.86 0.852zM16.676 17.061c-0.014-0.002-0.028 0.003-0.042 0.003-0.036-0.002-0.071 0-0.107 0.006-0.028 0.005-0.055 0.010-0.082 0.020-0.032 0.011-0.060 0.026-0.090 0.044-0.028 0.017-0.053 0.035-0.077 0.057-0.012 0.010-0.026 0.015-0.037 0.027l-4.358 4.773-4.014-3.948 2.628-2.614c0.193-0.193 0.194-0.506 0.002-0.7-0.097-0.097-0.226-0.145-0.354-0.145v-0l-2.058 0.012 0.026-1.491 2.879 0.025c1.173 1.2 2.81 1.949 4.62 1.949 0.406 0 0.801-0.042 1.187-0.114 0.037 0.030 0.074 0.060 0.12 0.079l2.235 0.89 0.141 0.703 0.165 0.821-2.785-0.396zM20.425 17.226l-0.29-1.445 1.342-1.002 0.878 1.165-1.929 1.281zM23.906 14.601l-0.777 0.728-0.864-1.147 0.771-0.591c0.144-0.111 0.326-0.156 0.504-0.133 0.179 0.025 0.337 0.119 0.445 0.264 0.201 0.271 0.167 0.648-0.079 0.879z"></path>
<path fill="#2e2f42" style="fill: var(--color1, #2e2f42)" d="M14.472 17.2l-1.988-1.979c-0.192-0.192-0.505-0.192-0.698 0l-1.987 1.979c-0.093 0.093-0.145 0.219-0.145 0.351s0.052 0.258 0.145 0.351l1.987 1.979c0.096 0.096 0.223 0.144 0.349 0.144s0.253-0.048 0.349-0.144l1.988-1.979c0.093-0.093 0.146-0.219 0.146-0.351s-0.052-0.258-0.146-0.351zM12.135 18.832l-1.286-1.281 1.286-1.281 1.287 1.281-1.287 1.281z"></path>
<path fill="#2e2f42" style="fill: var(--color1, #2e2f42)" d="M17.776 4.703l-0.239 0.961c0.066 0.016 1.612 0.419 1.612 1.993h0.989c-0-1.871-1.545-2.751-2.362-2.954z"></path>
<path fill="#2e2f42" style="fill: var(--color1, #2e2f42)" d="M20.138 8.646h-0.989v0.989h0.989v-0.989z"></path>
</symbol>
</defs>
</svg>
